<svg xmlns="http://www.w3.org/2000/svg" viewBox="0 0 1200 430" role="img" aria-labelledby="title"><title id="title">Ella Crow</title><svg x="0" y="0" width="520" height="430" viewBox="100 105 300 240" preserveAspectRatio="xMidYMid meet"><path d="M159 124h6v1h-6zM156 125h13v1h-13zM153 126h19v1h-19zM151 127h23v1h-23zM149 128h26v1h-26zM148 129h28v1h-28zM146 130h32v1h-32zM145 131h33v1h-33zM144 132h35v1h-35zM142 133h38v1h-38zM141 134h40v1h-40zM140 135h23v1h-23zM170 135h11v1h-11zM139 136h22v1h-22zM173 136h9v1h-9zM138 137h21v1h-21zM175 137h7v1h-7zM137 138h21v1h-21zM176 138h6v1h-6zM137 139h19v1h-19zM176 139h7v1h-7zM136 140h19v1h-19zM177 140h6v1h-6zM135 141h19v1h-19zM178 141h6v1h-6zM135 142h18v1h-18zM178 142h6v1h-6zM134 143h18v1h-18zM179 143h6v1h-6zM222 143h4v1h-4zM133 144h19v1h-19zM179 144h6v1h-6zM219 144h9v1h-9zM133 145h18v1h-18zM180 145h5v1h-5zM217 145h12v1h-12zM132 146h18v1h-18zM180 146h6v1h-6zM216 146h15v1h-15zM132 147h18v1h-18zM181 147h5v1h-5zM215 147h16v1h-16zM258 147h2v1h-2zM131 148h18v1h-18zM181 148h5v1h-5zM214 148h18v1h-18zM256 148h8v1h-8zM131 149h17v1h-17zM182 149h4v1h-4zM214 149h19v1h-19zM254 149h13v1h-13zM130 150h18v1h-18zM182 150h5v1h-5zM213 150h20v1h-20zM253 150h15v1h-15zM130 151h17v1h-17zM182 151h5v1h-5zM212 151h22v1h-22zM251 151h18v1h-18zM129 152h18v1h-18zM183 152h4v1h-4zM212 152h22v1h-22zM251 152h19v1h-19zM129 153h17v1h-17zM183 153h5v1h-5zM211 153h8v1h-8zM222 153h12v1h-12zM250 153h21v1h-21zM128 154h18v1h-18zM184 154h4v1h-4zM211 154h7v1h-7zM223 154h11v1h-11zM249 154h22v1h-22zM127 155h18v1h-18zM184 155h4v1h-4zM210 155h8v1h-8zM223 155h11v1h-11zM249 155h23v1h-23zM127 156h18v1h-18zM185 156h3v1h-3zM209 156h8v1h-8zM224 156h11v1h-11zM249 156h23v1h-23zM127 157h17v1h-17zM185 157h3v1h-3zM208 157h8v1h-8zM224 157h11v1h-11zM248 157h9v1h-9zM259 157h14v1h-14zM126 158h18v1h-18zM185 158h4v1h-4zM208 158h7v1h-7zM224 158h11v1h-11zM248 158h7v1h-7zM260 158h13v1h-13zM126 159h17v1h-17zM185 159h4v1h-4zM207 159h7v1h-7zM224 159h12v1h-12zM248 159h6v1h-6zM260 159h14v1h-14zM125 160h17v1h-17zM185 160h4v1h-4zM206 160h7v1h-7zM224 160h12v1h-12zM247 160h7v1h-7zM261 160h13v1h-13zM125 161h17v1h-17zM186 161h3v1h-3zM206 161h6v1h-6zM224 161h12v1h-12zM247 161h6v1h-6zM261 161h13v1h-13zM124 162h18v1h-18zM186 162h3v1h-3zM205 162h7v1h-7zM224 162h12v1h-12zM247 162h5v1h-5zM261 162h13v1h-13zM124 163h17v1h-17zM186 163h2v1h-2zM205 163h6v1h-6zM224 163h12v1h-12zM248 163h3v1h-3zM262 163h12v1h-12zM123 164h18v1h-18zM205 164h5v1h-5zM224 164h12v1h-12zM262 164h12v1h-12zM123 165h17v1h-17zM204 165h6v1h-6zM224 165h12v1h-12zM262 165h12v1h-12zM123 166h17v1h-17zM204 166h5v1h-5zM224 166h12v1h-12zM262 166h13v1h-13zM122 167h18v1h-18zM203 167h5v1h-5zM224 167h12v1h-12zM262 167h13v1h-13zM122 168h17v1h-17zM203 168h5v1h-5zM224 168h12v1h-12zM262 168h13v1h-13zM122 169h17v1h-17zM202 169h5v1h-5zM224 169h12v1h-12zM263 169h12v1h-12zM121 170h18v1h-18zM202 170h5v1h-5zM224 170h12v1h-12zM263 170h12v1h-12zM121 171h17v1h-17zM202 171h4v1h-4zM224 171h12v1h-12zM263 171h13v1h-13zM121 172h17v1h-17zM202 172h4v1h-4zM224 172h12v1h-12zM263 172h13v1h-13zM121 173h16v1h-16zM202 173h3v1h-3zM224 173h13v1h-13zM263 173h13v1h-13zM120 174h17v1h-17zM202 174h3v1h-3zM224 174h13v1h-13zM263 174h13v1h-13zM120 175h17v1h-17zM202 175h3v1h-3zM224 175h12v1h-12zM263 175h13v1h-13zM120 176h16v1h-16zM202 176h3v1h-3zM224 176h12v1h-12zM263 176h14v1h-14zM119 177h17v1h-17zM202 177h2v1h-2zM223 177h13v1h-13zM263 177h14v1h-14zM119 178h17v1h-17zM223 178h13v1h-13zM264 178h13v1h-13zM119 179h16v1h-16zM223 179h13v1h-13zM264 179h13v1h-13zM118 180h17v1h-17zM223 180h13v1h-13zM264 180h13v1h-13zM118 181h17v1h-17zM223 181h13v1h-13zM264 181h13v1h-13zM118 182h16v1h-16zM222 182h14v1h-14zM264 182h13v1h-13zM118 183h16v1h-16zM222 183h14v1h-14zM264 183h13v1h-13zM118 184h16v1h-16zM222 184h14v1h-14zM264 184h13v1h-13zM118 185h16v1h-16zM222 185h14v1h-14zM264 185h13v1h-13zM117 186h17v1h-17zM222 186h14v1h-14zM264 186h14v1h-14zM117 187h16v1h-16zM222 187h14v1h-14zM264 187h14v1h-14zM117 188h16v1h-16zM222 188h14v1h-14zM264 188h14v1h-14zM117 189h16v1h-16zM222 189h14v1h-14zM264 189h14v1h-14zM117 190h16v1h-16zM222 190h14v1h-14zM264 190h14v1h-14zM117 191h16v1h-16zM221 191h15v1h-15zM264 191h14v1h-14zM117 192h16v1h-16zM221 192h15v1h-15zM264 192h14v1h-14zM117 193h15v1h-15zM221 193h15v1h-15zM264 193h15v1h-15zM117 194h15v1h-15zM221 194h15v1h-15zM264 194h15v1h-15zM117 195h15v1h-15zM221 195h15v1h-15zM264 195h15v1h-15zM117 196h15v1h-15zM221 196h15v1h-15zM264 196h15v1h-15zM117 197h15v1h-15zM221 197h15v1h-15zM264 197h15v1h-15zM117 198h15v1h-15zM221 198h15v1h-15zM264 198h15v1h-15zM117 199h15v1h-15zM221 199h15v1h-15zM264 199h15v1h-15zM117 200h15v1h-15zM221 200h15v1h-15zM264 200h15v1h-15zM117 201h16v1h-16zM221 201h14v1h-14zM264 201h15v1h-15zM338 201h3v1h-3zM117 202h15v1h-15zM221 202h14v1h-14zM264 202h15v1h-15zM337 202h5v1h-5zM118 203h14v1h-14zM221 203h14v1h-14zM264 203h15v1h-15zM338 203h4v1h-4zM118 204h14v1h-14zM221 204h14v1h-14zM265 204h14v1h-14zM338 204h5v1h-5zM118 205h15v1h-15zM221 205h15v1h-15zM265 205h14v1h-14zM338 205h5v1h-5zM119 206h14v1h-14zM221 206h15v1h-15zM264 206h15v1h-15zM338 206h5v1h-5zM119 207h14v1h-14zM221 207h15v1h-15zM264 207h15v1h-15zM338 207h6v1h-6zM120 208h13v1h-13zM221 208h15v1h-15zM264 208h15v1h-15zM338 208h6v1h-6zM120 209h13v1h-13zM221 209h15v1h-15zM264 209h15v1h-15zM338 209h6v1h-6zM121 210h12v1h-12zM221 210h15v1h-15zM264 210h15v1h-15zM318 210h8v1h-8zM338 210h6v1h-6zM121 211h13v1h-13zM221 211h15v1h-15zM264 211h15v1h-15zM316 211h12v1h-12zM338 211h6v1h-6zM121 212h13v1h-13zM221 212h15v1h-15zM264 212h15v1h-15zM315 212h14v1h-14zM338 212h7v1h-7zM122 213h12v1h-12zM221 213h15v1h-15zM264 213h15v1h-15zM313 213h18v1h-18zM338 213h7v1h-7zM122 214h12v1h-12zM221 214h15v1h-15zM264 214h15v1h-15zM312 214h21v1h-21zM338 214h7v1h-7zM123 215h12v1h-12zM221 215h15v1h-15zM264 215h15v1h-15zM311 215h22v1h-22zM338 215h7v1h-7zM124 216h11v1h-11zM221 216h14v1h-14zM264 216h15v1h-15zM310 216h25v1h-25zM338 216h7v1h-7zM124 217h11v1h-11zM221 217h14v1h-14zM264 217h15v1h-15zM309 217h26v1h-26zM338 217h7v1h-7zM125 218h11v1h-11zM163 218h5v1h-5zM221 218h14v1h-14zM264 218h16v1h-16zM309 218h15v1h-15zM325 218h11v1h-11zM338 218h7v1h-7zM126 219h11v1h-11zM159 219h9v1h-9zM220 219h15v1h-15zM264 219h16v1h-16zM308 219h14v1h-14zM328 219h8v1h-8zM338 219h7v1h-7zM126 220h11v1h-11zM155 220h12v1h-12zM220 220h15v1h-15zM264 220h15v1h-15zM307 220h14v1h-14zM329 220h8v1h-8zM338 220h7v1h-7zM127 221h12v1h-12zM153 221h12v1h-12zM220 221h15v1h-15zM264 221h15v1h-15zM307 221h12v1h-12zM330 221h16v1h-16zM128 222h13v1h-13zM151 222h13v1h-13zM220 222h15v1h-15zM264 222h15v1h-15zM306 222h13v1h-13zM331 222h15v1h-15zM129 223h33v1h-33zM219 223h16v1h-16zM264 223h16v1h-16zM306 223h13v1h-13zM332 223h14v1h-14zM131 224h29v1h-29zM219 224h16v1h-16zM264 224h16v1h-16zM305 224h13v1h-13zM332 224h14v1h-14zM132 225h26v1h-26zM219 225h15v1h-15zM264 225h16v1h-16zM305 225h13v1h-13zM333 225h13v1h-13zM134 226h23v1h-23zM219 226h15v1h-15zM264 226h16v1h-16zM305 226h13v1h-13zM333 226h13v1h-13zM137 227h17v1h-17zM219 227h15v1h-15zM264 227h16v1h-16zM304 227h13v1h-13zM334 227h12v1h-12zM138 228h13v1h-13zM219 228h15v1h-15zM264 228h16v1h-16zM304 228h13v1h-13zM334 228h12v1h-12zM137 229h6v1h-6zM219 229h15v1h-15zM264 229h16v1h-16zM304 229h13v1h-13zM335 229h12v1h-12zM135 230h7v1h-7zM218 230h16v1h-16zM264 230h16v1h-16zM303 230h13v1h-13zM335 230h12v1h-12zM134 231h7v1h-7zM218 231h16v1h-16zM264 231h16v1h-16zM303 231h13v1h-13zM336 231h11v1h-11zM133 232h7v1h-7zM218 232h16v1h-16zM264 232h16v1h-16zM303 232h13v1h-13zM336 232h11v1h-11zM132 233h7v1h-7zM218 233h16v1h-16zM264 233h16v1h-16zM302 233h14v1h-14zM337 233h10v1h-10zM131 234h7v1h-7zM218 234h16v1h-16zM264 234h16v1h-16zM302 234h13v1h-13zM338 234h10v1h-10zM130 235h7v1h-7zM218 235h16v1h-16zM264 235h16v1h-16zM301 235h14v1h-14zM338 235h10v1h-10zM129 236h8v1h-8zM218 236h16v1h-16zM264 236h16v1h-16zM301 236h14v1h-14zM339 236h9v1h-9zM128 237h8v1h-8zM218 237h16v1h-16zM264 237h16v1h-16zM301 237h14v1h-14zM339 237h9v1h-9zM128 238h8v1h-8zM218 238h16v1h-16zM264 238h16v1h-16zM300 238h15v1h-15zM339 238h9v1h-9zM127 239h8v1h-8zM218 239h16v1h-16zM264 239h16v1h-16zM300 239h14v1h-14zM339 239h9v1h-9zM126 240h8v1h-8zM218 240h16v1h-16zM264 240h16v1h-16zM300 240h14v1h-14zM340 240h8v1h-8zM125 241h9v1h-9zM218 241h16v1h-16zM264 241h16v1h-16zM300 241h14v1h-14zM340 241h9v1h-9zM124 242h9v1h-9zM218 242h16v1h-16zM264 242h16v1h-16zM299 242h14v1h-14zM340 242h9v1h-9zM123 243h10v1h-10zM218 243h16v1h-16zM264 243h16v1h-16zM299 243h14v1h-14zM340 243h9v1h-9zM122 244h10v1h-10zM218 244h16v1h-16zM264 244h16v1h-16zM299 244h14v1h-14zM340 244h9v1h-9zM122 245h10v1h-10zM219 245h15v1h-15zM265 245h15v1h-15zM299 245h14v1h-14zM340 245h9v1h-9zM121 246h11v1h-11zM219 246h15v1h-15zM265 246h15v1h-15zM299 246h14v1h-14zM341 246h8v1h-8zM121 247h11v1h-11zM219 247h15v1h-15zM265 247h15v1h-15zM298 247h15v1h-15zM341 247h8v1h-8zM120 248h11v1h-11zM219 248h15v1h-15zM265 248h15v1h-15zM298 248h15v1h-15zM341 248h8v1h-8zM119 249h12v1h-12zM219 249h15v1h-15zM265 249h15v1h-15zM298 249h15v1h-15zM341 249h8v1h-8zM119 250h12v1h-12zM219 250h15v1h-15zM265 250h15v1h-15zM298 250h15v1h-15zM341 250h8v1h-8zM118 251h12v1h-12zM219 251h15v1h-15zM265 251h15v1h-15zM298 251h15v1h-15zM341 251h8v1h-8zM118 252h12v1h-12zM219 252h15v1h-15zM265 252h15v1h-15zM298 252h15v1h-15zM341 252h8v1h-8zM117 253h13v1h-13zM219 253h15v1h-15zM265 253h15v1h-15zM298 253h15v1h-15zM341 253h9v1h-9zM117 254h13v1h-13zM219 254h16v1h-16zM265 254h15v1h-15zM298 254h15v1h-15zM342 254h8v1h-8zM117 255h13v1h-13zM220 255h15v1h-15zM265 255h15v1h-15zM297 255h16v1h-16zM342 255h8v1h-8zM117 256h13v1h-13zM220 256h15v1h-15zM266 256h14v1h-14zM297 256h16v1h-16zM342 256h8v1h-8zM116 257h13v1h-13zM220 257h15v1h-15zM265 257h15v1h-15zM297 257h15v1h-15zM342 257h8v1h-8zM116 258h13v1h-13zM220 258h15v1h-15zM265 258h15v1h-15zM297 258h15v1h-15zM342 258h8v1h-8zM115 259h14v1h-14zM220 259h15v1h-15zM265 259h16v1h-16zM297 259h16v1h-16zM341 259h9v1h-9zM115 260h14v1h-14zM221 260h14v1h-14zM265 260h16v1h-16zM297 260h16v1h-16zM341 260h9v1h-9zM115 261h14v1h-14zM221 261h15v1h-15zM265 261h16v1h-16zM297 261h16v1h-16zM341 261h9v1h-9zM115 262h14v1h-14zM221 262h15v1h-15zM265 262h16v1h-16zM297 262h16v1h-16zM341 262h9v1h-9zM114 263h15v1h-15zM221 263h15v1h-15zM265 263h16v1h-16zM297 263h16v1h-16zM341 263h9v1h-9zM114 264h15v1h-15zM221 264h15v1h-15zM266 264h15v1h-15zM297 264h16v1h-16zM341 264h9v1h-9zM114 265h15v1h-15zM221 265h15v1h-15zM266 265h15v1h-15zM297 265h16v1h-16zM341 265h9v1h-9zM114 266h15v1h-15zM221 266h15v1h-15zM266 266h15v1h-15zM297 266h16v1h-16zM341 266h9v1h-9zM113 267h15v1h-15zM221 267h15v1h-15zM266 267h15v1h-15zM297 267h16v1h-16zM341 267h9v1h-9zM113 268h15v1h-15zM222 268h14v1h-14zM266 268h15v1h-15zM297 268h16v1h-16zM341 268h9v1h-9zM113 269h15v1h-15zM222 269h14v1h-14zM266 269h16v1h-16zM297 269h16v1h-16zM340 269h10v1h-10zM113 270h15v1h-15zM222 270h15v1h-15zM266 270h16v1h-16zM298 270h15v1h-15zM340 270h10v1h-10zM113 271h15v1h-15zM222 271h15v1h-15zM267 271h15v1h-15zM298 271h15v1h-15zM340 271h10v1h-10zM113 272h15v1h-15zM222 272h15v1h-15zM267 272h15v1h-15zM298 272h15v1h-15zM340 272h11v1h-11zM113 273h15v1h-15zM222 273h15v1h-15zM267 273h15v1h-15zM298 273h16v1h-16zM340 273h11v1h-11zM113 274h15v1h-15zM222 274h15v1h-15zM267 274h15v1h-15zM299 274h15v1h-15zM340 274h11v1h-11zM113 275h15v1h-15zM222 275h15v1h-15zM267 275h15v1h-15zM299 275h16v1h-16zM339 275h12v1h-12zM113 276h15v1h-15zM222 276h15v1h-15zM267 276h16v1h-16zM299 276h16v1h-16zM339 276h12v1h-12zM113 277h15v1h-15zM222 277h15v1h-15zM267 277h16v1h-16zM299 277h17v1h-17zM339 277h13v1h-13zM113 278h15v1h-15zM222 278h15v1h-15zM266 278h17v1h-17zM300 278h16v1h-16zM339 278h13v1h-13zM113 279h15v1h-15zM222 279h15v1h-15zM265 279h18v1h-18zM300 279h17v1h-17zM339 279h13v1h-13zM113 280h15v1h-15zM222 280h15v1h-15zM264 280h19v1h-19zM300 280h18v1h-18zM339 280h13v1h-13zM113 281h15v1h-15zM222 281h16v1h-16zM264 281h2v1h-2zM268 281h15v1h-15zM301 281h17v1h-17zM339 281h14v1h-14zM113 282h15v1h-15zM222 282h16v1h-16zM263 282h3v1h-3zM268 282h15v1h-15zM302 282h17v1h-17zM338 282h15v1h-15zM113 283h15v1h-15zM222 283h16v1h-16zM262 283h4v1h-4zM268 283h15v1h-15zM302 283h17v1h-17zM337 283h16v1h-16zM113 284h15v1h-15zM222 284h16v1h-16zM261 284h5v1h-5zM268 284h15v1h-15zM303 284h17v1h-17zM337 284h17v1h-17zM113 285h15v1h-15zM222 285h16v1h-16zM260 285h5v1h-5zM268 285h15v1h-15zM303 285h18v1h-18zM336 285h19v1h-19zM113 286h15v1h-15zM222 286h16v1h-16zM260 286h5v1h-5zM268 286h15v1h-15zM303 286h19v1h-19zM335 286h8v1h-8zM344 286h11v1h-11zM113 287h16v1h-16zM223 287h15v1h-15zM259 287h6v1h-6zM268 287h15v1h-15zM304 287h19v1h-19zM334 287h9v1h-9zM344 287h11v1h-11zM113 288h16v1h-16zM223 288h15v1h-15zM258 288h6v1h-6zM268 288h15v1h-15zM305 288h20v1h-20zM331 288h11v1h-11zM345 288h11v1h-11zM113 289h16v1h-16zM223 289h15v1h-15zM258 289h6v1h-6zM268 289h15v1h-15zM305 289h37v1h-37zM345 289h12v1h-12zM113 290h16v1h-16zM183 290h15v1h-15zM223 290h15v1h-15zM257 290h7v1h-7zM268 290h15v1h-15zM306 290h36v1h-36zM345 290h13v1h-13zM387 290h1v1h-1zM113 291h16v1h-16zM180 291h21v1h-21zM223 291h16v1h-16zM256 291h8v1h-8zM268 291h16v1h-16zM306 291h35v1h-35zM345 291h14v1h-14zM385 291h4v1h-4zM114 292h16v1h-16zM176 292h27v1h-27zM224 292h15v1h-15zM255 292h9v1h-9zM268 292h16v1h-16zM307 292h33v1h-33zM346 292h14v1h-14zM383 292h5v1h-5zM114 293h16v1h-16zM173 293h33v1h-33zM224 293h16v1h-16zM254 293h9v1h-9zM268 293h16v1h-16zM308 293h32v1h-32zM347 293h14v1h-14zM380 293h7v1h-7zM115 294h15v1h-15zM170 294h39v1h-39zM224 294h16v1h-16zM254 294h9v1h-9zM268 294h16v1h-16zM309 294h30v1h-30zM347 294h17v1h-17zM377 294h10v1h-10zM115 295h15v1h-15zM168 295h43v1h-43zM224 295h16v1h-16zM253 295h9v1h-9zM269 295h15v1h-15zM301 295h4v1h-4zM309 295h29v1h-29zM348 295h18v1h-18zM375 295h11v1h-11zM115 296h16v1h-16zM166 296h46v1h-46zM225 296h16v1h-16zM252 296h10v1h-10zM269 296h16v1h-16zM299 296h5v1h-5zM311 296h26v1h-26zM349 296h21v1h-21zM372 296h14v1h-14zM116 297h15v1h-15zM164 297h49v1h-49zM225 297h16v1h-16zM251 297h10v1h-10zM269 297h16v1h-16zM297 297h6v1h-6zM312 297h24v1h-24zM349 297h36v1h-36zM116 298h16v1h-16zM162 298h52v1h-52zM225 298h17v1h-17zM250 298h11v1h-11zM269 298h16v1h-16zM293 298h10v1h-10zM313 298h22v1h-22zM351 298h34v1h-34zM116 299h16v1h-16zM161 299h54v1h-54zM225 299h17v1h-17zM249 299h12v1h-12zM270 299h16v1h-16zM290 299h12v1h-12zM315 299h18v1h-18zM352 299h32v1h-32zM117 300h16v1h-16zM159 300h57v1h-57zM226 300h17v1h-17zM248 300h12v1h-12zM270 300h32v1h-32zM317 300h14v1h-14zM353 300h30v1h-30zM117 301h16v1h-16zM157 301h61v1h-61zM226 301h34v1h-34zM270 301h31v1h-31zM319 301h10v1h-10zM354 301h28v1h-28zM117 302h17v1h-17zM155 302h63v1h-63zM227 302h32v1h-32zM270 302h30v1h-30zM355 302h26v1h-26zM117 303h17v1h-17zM154 303h65v1h-65zM227 303h32v1h-32zM271 303h28v1h-28zM356 303h23v1h-23zM118 304h17v1h-17zM152 304h41v1h-41zM205 304h15v1h-15zM228 304h30v1h-30zM272 304h27v1h-27zM358 304h20v1h-20zM118 305h18v1h-18zM151 305h38v1h-38zM208 305h13v1h-13zM228 305h30v1h-30zM272 305h27v1h-27zM361 305h15v1h-15zM119 306h18v1h-18zM150 306h34v1h-34zM211 306h10v1h-10zM229 306h29v1h-29zM273 306h25v1h-25zM363 306h10v1h-10zM120 307h17v1h-17zM148 307h34v1h-34zM213 307h9v1h-9zM230 307h27v1h-27zM274 307h23v1h-23zM120 308h18v1h-18zM147 308h31v1h-31zM217 308h5v1h-5zM231 308h25v1h-25zM274 308h21v1h-21zM121 309h19v1h-19zM146 309h30v1h-30zM218 309h5v1h-5zM232 309h23v1h-23zM275 309h19v1h-19zM121 310h53v1h-53zM221 310h3v1h-3zM233 310h21v1h-21zM277 310h15v1h-15zM122 311h50v1h-50zM223 311h2v1h-2zM234 311h18v1h-18zM278 311h12v1h-12zM122 312h48v1h-48zM236 312h15v1h-15zM280 312h9v1h-9zM123 313h45v1h-45zM239 313h8v1h-8zM124 314h42v1h-42zM125 315h40v1h-40zM126 316h37v1h-37zM126 317h36v1h-36zM127 318h33v1h-33zM128 319h31v1h-31zM130 320h27v1h-27zM131 321h26v1h-26zM132 322h23v1h-23zM133 323h20v1h-20zM136 324h15v1h-15zM137 325h12v1h-12zM143 326h3v1h-3z"/></svg><svg x="500" y="42" width="700" height="350" viewBox="110 322 350 190" preserveAspectRatio="xMidYMid meet"><path d="M173 322h34v1h-34zM172 323h36v1h-36zM168 324h41v1h-41zM166 325h44v1h-44zM165 326h46v1h-46zM163 327h49v1h-49zM162 328h29v1h-29zM202 328h10v1h-10zM161 329h27v1h-27zM204 329h9v1h-9zM159 330h26v1h-26zM206 330h8v1h-8zM158 331h25v1h-25zM207 331h7v1h-7zM157 332h24v1h-24zM208 332h6v1h-6zM156 333h24v1h-24zM209 333h5v1h-5zM154 334h24v1h-24zM153 335h25v1h-25zM152 336h24v1h-24zM152 337h23v1h-23zM151 338h22v1h-22zM150 339h22v1h-22zM149 340h22v1h-22zM148 341h22v1h-22zM147 342h21v1h-21zM147 343h21v1h-21zM146 344h21v1h-21zM145 345h21v1h-21zM145 346h20v1h-20zM144 347h20v1h-20zM143 348h20v1h-20zM142 349h20v1h-20zM142 350h19v1h-19zM141 351h20v1h-20zM141 352h19v1h-19zM140 353h19v1h-19zM139 354h19v1h-19zM139 355h19v1h-19zM138 356h19v1h-19zM137 357h19v1h-19zM137 358h19v1h-19zM137 359h18v1h-18zM136 360h18v1h-18zM135 361h18v1h-18zM135 362h17v1h-17zM134 363h18v1h-18zM133 364h18v1h-18zM133 365h18v1h-18zM133 366h17v1h-17zM132 367h18v1h-18zM132 368h18v1h-18zM131 369h18v1h-18zM131 370h17v1h-17zM131 371h17v1h-17zM130 372h17v1h-17zM130 373h17v1h-17zM130 374h17v1h-17zM130 375h16v1h-16zM129 376h17v1h-17zM129 377h17v1h-17zM129 378h16v1h-16zM129 379h16v1h-16zM128 380h17v1h-17zM128 381h16v1h-16zM128 382h16v1h-16zM127 383h17v1h-17zM397 383h7v1h-7zM127 384h16v1h-16zM393 384h15v1h-15zM127 385h16v1h-16zM226 385h4v1h-4zM391 385h19v1h-19zM127 386h16v1h-16zM225 386h7v1h-7zM248 386h9v1h-9zM356 386h2v1h-2zM390 386h22v1h-22zM127 387h16v1h-16zM224 387h9v1h-9zM245 387h13v1h-13zM332 387h3v1h-3zM355 387h4v1h-4zM389 387h24v1h-24zM127 388h16v1h-16zM223 388h11v1h-11zM244 388h16v1h-16zM294 388h6v1h-6zM330 388h7v1h-7zM355 388h4v1h-4zM388 388h26v1h-26zM126 389h16v1h-16zM222 389h12v1h-12zM242 389h18v1h-18zM283 389h20v1h-20zM329 389h9v1h-9zM355 389h4v1h-4zM387 389h28v1h-28zM126 390h16v1h-16zM221 390h14v1h-14zM240 390h21v1h-21zM281 390h24v1h-24zM327 390h12v1h-12zM355 390h5v1h-5zM387 390h30v1h-30zM126 391h16v1h-16zM221 391h14v1h-14zM239 391h23v1h-23zM280 391h28v1h-28zM326 391h13v1h-13zM355 391h5v1h-5zM386 391h32v1h-32zM126 392h16v1h-16zM220 392h16v1h-16zM238 392h24v1h-24zM279 392h30v1h-30zM325 392h15v1h-15zM355 392h5v1h-5zM386 392h34v1h-34zM436 392h7v1h-7zM126 393h16v1h-16zM219 393h17v1h-17zM238 393h25v1h-25zM278 393h33v1h-33zM325 393h15v1h-15zM355 393h5v1h-5zM385 393h13v1h-13zM405 393h17v1h-17zM431 393h11v1h-11zM126 394h16v1h-16zM218 394h7v1h-7zM228 394h20v1h-20zM255 394h8v1h-8zM277 394h36v1h-36zM324 394h17v1h-17zM355 394h6v1h-6zM385 394h11v1h-11zM407 394h34v1h-34zM126 395h15v1h-15zM218 395h6v1h-6zM228 395h18v1h-18zM256 395h8v1h-8zM276 395h38v1h-38zM324 395h6v1h-6zM333 395h8v1h-8zM355 395h6v1h-6zM385 395h11v1h-11zM408 395h32v1h-32zM126 396h15v1h-15zM217 396h7v1h-7zM228 396h16v1h-16zM257 396h7v1h-7zM275 396h21v1h-21zM302 396h13v1h-13zM323 396h6v1h-6zM333 396h8v1h-8zM355 396h6v1h-6zM385 396h10v1h-10zM410 396h29v1h-29zM125 397h16v1h-16zM216 397h6v1h-6zM228 397h15v1h-15zM258 397h6v1h-6zM274 397h21v1h-21zM306 397h9v1h-9zM323 397h5v1h-5zM333 397h9v1h-9zM355 397h6v1h-6zM384 397h10v1h-10zM411 397h26v1h-26zM125 398h16v1h-16zM215 398h7v1h-7zM228 398h14v1h-14zM259 398h5v1h-5zM274 398h21v1h-21zM308 398h8v1h-8zM324 398h3v1h-3zM333 398h9v1h-9zM355 398h6v1h-6zM384 398h10v1h-10zM412 398h24v1h-24zM125 399h16v1h-16zM214 399h7v1h-7zM228 399h13v1h-13zM259 399h5v1h-5zM274 399h20v1h-20zM309 399h7v1h-7zM325 399h1v1h-1zM333 399h9v1h-9zM355 399h6v1h-6zM383 399h10v1h-10zM414 399h20v1h-20zM125 400h15v1h-15zM213 400h6v1h-6zM228 400h12v1h-12zM260 400h4v1h-4zM273 400h20v1h-20zM310 400h7v1h-7zM333 400h9v1h-9zM355 400h6v1h-6zM383 400h10v1h-10zM416 400h15v1h-15zM124 401h16v1h-16zM212 401h6v1h-6zM228 401h12v1h-12zM261 401h2v1h-2zM272 401h21v1h-21zM311 401h7v1h-7zM333 401h9v1h-9zM355 401h6v1h-6zM383 401h10v1h-10zM420 401h7v1h-7zM124 402h16v1h-16zM212 402h5v1h-5zM228 402h11v1h-11zM271 402h22v1h-22zM312 402h6v1h-6zM333 402h9v1h-9zM355 402h6v1h-6zM383 402h9v1h-9zM124 403h16v1h-16zM213 403h3v1h-3zM228 403h11v1h-11zM271 403h22v1h-22zM312 403h6v1h-6zM333 403h9v1h-9zM355 403h6v1h-6zM382 403h10v1h-10zM124 404h16v1h-16zM228 404h11v1h-11zM270 404h22v1h-22zM313 404h6v1h-6zM333 404h9v1h-9zM355 404h7v1h-7zM382 404h9v1h-9zM124 405h16v1h-16zM228 405h11v1h-11zM270 405h22v1h-22zM313 405h6v1h-6zM333 405h9v1h-9zM355 405h7v1h-7zM381 405h10v1h-10zM124 406h16v1h-16zM228 406h11v1h-11zM270 406h22v1h-22zM314 406h5v1h-5zM333 406h9v1h-9zM355 406h7v1h-7zM381 406h10v1h-10zM124 407h16v1h-16zM228 407h11v1h-11zM270 407h21v1h-21zM299 407h5v1h-5zM314 407h5v1h-5zM333 407h9v1h-9zM355 407h7v1h-7zM381 407h10v1h-10zM124 408h16v1h-16zM228 408h11v1h-11zM269 408h22v1h-22zM298 408h7v1h-7zM315 408h5v1h-5zM333 408h9v1h-9zM355 408h7v1h-7zM381 408h10v1h-10zM124 409h16v1h-16zM228 409h11v1h-11zM269 409h22v1h-22zM297 409h9v1h-9zM315 409h5v1h-5zM333 409h9v1h-9zM355 409h7v1h-7zM381 409h9v1h-9zM124 410h16v1h-16zM228 410h11v1h-11zM268 410h23v1h-23zM297 410h9v1h-9zM315 410h6v1h-6zM333 410h10v1h-10zM354 410h8v1h-8zM381 410h9v1h-9zM124 411h16v1h-16zM228 411h11v1h-11zM268 411h23v1h-23zM298 411h1v1h-1zM302 411h5v1h-5zM316 411h5v1h-5zM333 411h10v1h-10zM354 411h8v1h-8zM381 411h9v1h-9zM124 412h16v1h-16zM228 412h11v1h-11zM268 412h13v1h-13zM282 412h8v1h-8zM303 412h4v1h-4zM316 412h6v1h-6zM333 412h10v1h-10zM354 412h8v1h-8zM380 412h9v1h-9zM124 413h16v1h-16zM228 413h11v1h-11zM268 413h13v1h-13zM282 413h8v1h-8zM303 413h5v1h-5zM316 413h6v1h-6zM333 413h10v1h-10zM354 413h8v1h-8zM380 413h9v1h-9zM124 414h16v1h-16zM228 414h11v1h-11zM268 414h13v1h-13zM282 414h8v1h-8zM303 414h5v1h-5zM317 414h5v1h-5zM333 414h10v1h-10zM354 414h8v1h-8zM380 414h9v1h-9zM124 415h16v1h-16zM228 415h11v1h-11zM267 415h13v1h-13zM282 415h8v1h-8zM303 415h5v1h-5zM318 415h5v1h-5zM333 415h10v1h-10zM354 415h8v1h-8zM380 415h9v1h-9zM124 416h16v1h-16zM228 416h11v1h-11zM267 416h13v1h-13zM282 416h8v1h-8zM303 416h5v1h-5zM318 416h5v1h-5zM333 416h10v1h-10zM354 416h9v1h-9zM380 416h8v1h-8zM124 417h16v1h-16zM228 417h11v1h-11zM267 417h13v1h-13zM282 417h8v1h-8zM304 417h5v1h-5zM319 417h4v1h-4zM333 417h10v1h-10zM354 417h8v1h-8zM379 417h9v1h-9zM124 418h16v1h-16zM228 418h11v1h-11zM267 418h13v1h-13zM282 418h8v1h-8zM304 418h5v1h-5zM319 418h4v1h-4zM333 418h11v1h-11zM354 418h8v1h-8zM379 418h9v1h-9zM124 419h16v1h-16zM228 419h12v1h-12zM266 419h14v1h-14zM282 419h8v1h-8zM304 419h5v1h-5zM319 419h4v1h-4zM333 419h11v1h-11zM354 419h9v1h-9zM379 419h9v1h-9zM124 420h16v1h-16zM228 420h12v1h-12zM266 420h14v1h-14zM282 420h8v1h-8zM304 420h5v1h-5zM319 420h4v1h-4zM333 420h11v1h-11zM354 420h9v1h-9zM379 420h9v1h-9zM124 421h16v1h-16zM228 421h12v1h-12zM266 421h13v1h-13zM283 421h8v1h-8zM304 421h5v1h-5zM319 421h5v1h-5zM333 421h11v1h-11zM354 421h9v1h-9zM379 421h9v1h-9zM124 422h16v1h-16zM228 422h12v1h-12zM265 422h14v1h-14zM283 422h8v1h-8zM304 422h5v1h-5zM319 422h5v1h-5zM333 422h11v1h-11zM354 422h9v1h-9zM379 422h8v1h-8zM124 423h16v1h-16zM228 423h12v1h-12zM265 423h14v1h-14zM283 423h8v1h-8zM304 423h5v1h-5zM319 423h5v1h-5zM333 423h11v1h-11zM353 423h10v1h-10zM379 423h8v1h-8zM124 424h16v1h-16zM228 424h12v1h-12zM265 424h14v1h-14zM283 424h9v1h-9zM303 424h6v1h-6zM319 424h5v1h-5zM333 424h11v1h-11zM353 424h10v1h-10zM379 424h8v1h-8zM125 425h15v1h-15zM228 425h12v1h-12zM264 425h15v1h-15zM283 425h9v1h-9zM303 425h5v1h-5zM320 425h4v1h-4zM333 425h11v1h-11zM353 425h10v1h-10zM379 425h8v1h-8zM125 426h15v1h-15zM228 426h12v1h-12zM264 426h15v1h-15zM284 426h9v1h-9zM303 426h5v1h-5zM320 426h4v1h-4zM333 426h11v1h-11zM353 426h10v1h-10zM379 426h8v1h-8zM125 427h15v1h-15zM228 427h12v1h-12zM264 427h15v1h-15zM284 427h9v1h-9zM303 427h5v1h-5zM320 427h4v1h-4zM333 427h11v1h-11zM353 427h10v1h-10zM379 427h8v1h-8zM125 428h15v1h-15zM228 428h12v1h-12zM264 428h15v1h-15zM285 428h8v1h-8zM302 428h5v1h-5zM320 428h4v1h-4zM333 428h11v1h-11zM353 428h10v1h-10zM379 428h8v1h-8zM125 429h15v1h-15zM228 429h12v1h-12zM264 429h15v1h-15zM286 429h8v1h-8zM301 429h6v1h-6zM320 429h4v1h-4zM333 429h12v1h-12zM353 429h10v1h-10zM379 429h8v1h-8zM125 430h15v1h-15zM228 430h12v1h-12zM264 430h15v1h-15zM287 430h8v1h-8zM300 430h6v1h-6zM320 430h4v1h-4zM333 430h12v1h-12zM353 430h10v1h-10zM379 430h8v1h-8zM125 431h15v1h-15zM228 431h12v1h-12zM264 431h15v1h-15zM287 431h9v1h-9zM298 431h8v1h-8zM320 431h4v1h-4zM333 431h12v1h-12zM354 431h9v1h-9zM379 431h8v1h-8zM126 432h14v1h-14zM228 432h12v1h-12zM264 432h15v1h-15zM288 432h17v1h-17zM320 432h4v1h-4zM333 432h12v1h-12zM354 432h10v1h-10zM379 432h8v1h-8zM126 433h14v1h-14zM210 433h7v1h-7zM228 433h12v1h-12zM264 433h14v1h-14zM288 433h16v1h-16zM320 433h4v1h-4zM333 433h12v1h-12zM354 433h10v1h-10zM379 433h8v1h-8zM126 434h15v1h-15zM209 434h7v1h-7zM228 434h12v1h-12zM264 434h14v1h-14zM289 434h14v1h-14zM320 434h4v1h-4zM333 434h12v1h-12zM354 434h10v1h-10zM379 434h8v1h-8zM126 435h15v1h-15zM208 435h6v1h-6zM228 435h12v1h-12zM264 435h14v1h-14zM290 435h13v1h-13zM319 435h4v1h-4zM333 435h12v1h-12zM354 435h10v1h-10zM379 435h8v1h-8zM126 436h15v1h-15zM207 436h6v1h-6zM228 436h12v1h-12zM264 436h14v1h-14zM292 436h9v1h-9zM319 436h4v1h-4zM333 436h12v1h-12zM354 436h10v1h-10zM379 436h8v1h-8zM127 437h14v1h-14zM206 437h6v1h-6zM228 437h12v1h-12zM264 437h14v1h-14zM294 437h5v1h-5zM319 437h5v1h-5zM333 437h12v1h-12zM354 437h11v1h-11zM379 437h8v1h-8zM127 438h14v1h-14zM205 438h6v1h-6zM229 438h11v1h-11zM264 438h14v1h-14zM320 438h3v1h-3zM333 438h12v1h-12zM354 438h11v1h-11zM379 438h9v1h-9zM127 439h15v1h-15zM204 439h6v1h-6zM229 439h11v1h-11zM264 439h14v1h-14zM320 439h3v1h-3zM333 439h12v1h-12zM354 439h11v1h-11zM379 439h9v1h-9zM127 440h15v1h-15zM204 440h5v1h-5zM229 440h11v1h-11zM264 440h14v1h-14zM320 440h3v1h-3zM333 440h12v1h-12zM354 440h11v1h-11zM379 440h9v1h-9zM127 441h15v1h-15zM203 441h6v1h-6zM229 441h11v1h-11zM264 441h14v1h-14zM320 441h3v1h-3zM333 441h12v1h-12zM354 441h11v1h-11zM379 441h8v1h-8zM128 442h14v1h-14zM202 442h6v1h-6zM229 442h11v1h-11zM264 442h14v1h-14zM320 442h3v1h-3zM333 442h12v1h-12zM354 442h11v1h-11zM379 442h8v1h-8zM128 443h14v1h-14zM202 443h6v1h-6zM229 443h11v1h-11zM264 443h14v1h-14zM320 443h3v1h-3zM333 443h12v1h-12zM354 443h11v1h-11zM379 443h8v1h-8zM128 444h15v1h-15zM201 444h6v1h-6zM230 444h10v1h-10zM264 444h14v1h-14zM320 444h3v1h-3zM333 444h13v1h-13zM354 444h11v1h-11zM379 444h8v1h-8zM129 445h14v1h-14zM201 445h6v1h-6zM230 445h10v1h-10zM264 445h14v1h-14zM320 445h3v1h-3zM333 445h13v1h-13zM353 445h12v1h-12zM379 445h8v1h-8zM129 446h15v1h-15zM200 446h6v1h-6zM230 446h10v1h-10zM264 446h14v1h-14zM320 446h3v1h-3zM333 446h13v1h-13zM353 446h12v1h-12zM379 446h8v1h-8zM129 447h15v1h-15zM199 447h7v1h-7zM230 447h10v1h-10zM264 447h14v1h-14zM319 447h4v1h-4zM333 447h13v1h-13zM353 447h12v1h-12zM379 447h8v1h-8zM130 448h15v1h-15zM199 448h7v1h-7zM230 448h10v1h-10zM264 448h15v1h-15zM319 448h4v1h-4zM333 448h13v1h-13zM353 448h13v1h-13zM379 448h8v1h-8zM130 449h15v1h-15zM198 449h7v1h-7zM230 449h10v1h-10zM264 449h15v1h-15zM319 449h4v1h-4zM333 449h13v1h-13zM353 449h13v1h-13zM379 449h8v1h-8zM130 450h16v1h-16zM198 450h7v1h-7zM230 450h10v1h-10zM264 450h15v1h-15zM319 450h4v1h-4zM333 450h13v1h-13zM353 450h13v1h-13zM379 450h8v1h-8zM131 451h15v1h-15zM197 451h8v1h-8zM231 451h9v1h-9zM265 451h14v1h-14zM319 451h4v1h-4zM333 451h13v1h-13zM353 451h14v1h-14zM379 451h8v1h-8zM131 452h16v1h-16zM197 452h7v1h-7zM231 452h9v1h-9zM265 452h15v1h-15zM319 452h4v1h-4zM333 452h13v1h-13zM353 452h14v1h-14zM378 452h9v1h-9zM131 453h16v1h-16zM196 453h8v1h-8zM231 453h9v1h-9zM266 453h14v1h-14zM319 453h4v1h-4zM333 453h13v1h-13zM352 453h16v1h-16zM378 453h8v1h-8zM132 454h15v1h-15zM196 454h8v1h-8zM231 454h9v1h-9zM266 454h14v1h-14zM319 454h3v1h-3zM333 454h13v1h-13zM352 454h16v1h-16zM378 454h8v1h-8zM132 455h16v1h-16zM195 455h8v1h-8zM231 455h9v1h-9zM266 455h14v1h-14zM319 455h3v1h-3zM333 455h14v1h-14zM352 455h16v1h-16zM378 455h8v1h-8zM133 456h15v1h-15zM194 456h9v1h-9zM231 456h9v1h-9zM267 456h13v1h-13zM319 456h3v1h-3zM333 456h14v1h-14zM352 456h17v1h-17zM377 456h9v1h-9zM133 457h16v1h-16zM193 457h9v1h-9zM231 457h9v1h-9zM267 457h14v1h-14zM318 457h4v1h-4zM333 457h14v1h-14zM352 457h17v1h-17zM377 457h8v1h-8zM134 458h16v1h-16zM192 458h10v1h-10zM231 458h9v1h-9zM268 458h13v1h-13zM318 458h4v1h-4zM333 458h14v1h-14zM352 458h18v1h-18zM377 458h8v1h-8zM134 459h17v1h-17zM190 459h12v1h-12zM231 459h9v1h-9zM268 459h14v1h-14zM318 459h3v1h-3zM333 459h14v1h-14zM352 459h19v1h-19zM376 459h9v1h-9zM135 460h16v1h-16zM189 460h12v1h-12zM231 460h8v1h-8zM268 460h14v1h-14zM317 460h4v1h-4zM334 460h13v1h-13zM351 460h20v1h-20zM375 460h10v1h-10zM136 461h16v1h-16zM188 461h12v1h-12zM231 461h8v1h-8zM269 461h14v1h-14zM317 461h4v1h-4zM334 461h14v1h-14zM351 461h21v1h-21zM375 461h10v1h-10zM137 462h16v1h-16zM187 462h13v1h-13zM217 462h1v1h-1zM231 462h8v1h-8zM269 462h14v1h-14zM317 462h3v1h-3zM334 462h14v1h-14zM350 462h9v1h-9zM360 462h13v1h-13zM374 462h10v1h-10zM137 463h18v1h-18zM186 463h13v1h-13zM216 463h2v1h-2zM230 463h9v1h-9zM269 463h14v1h-14zM316 463h4v1h-4zM334 463h15v1h-15zM350 463h9v1h-9zM361 463h23v1h-23zM138 464h18v1h-18zM185 464h13v1h-13zM215 464h3v1h-3zM230 464h8v1h-8zM270 464h13v1h-13zM316 464h4v1h-4zM335 464h24v1h-24zM361 464h22v1h-22zM138 465h19v1h-19zM182 465h15v1h-15zM214 465h4v1h-4zM230 465h8v1h-8zM271 465h13v1h-13zM315 465h4v1h-4zM335 465h24v1h-24zM362 465h20v1h-20zM139 466h19v1h-19zM181 466h15v1h-15zM214 466h4v1h-4zM230 466h8v1h-8zM271 466h13v1h-13zM315 466h4v1h-4zM335 466h24v1h-24zM363 466h19v1h-19zM140 467h20v1h-20zM179 467h17v1h-17zM213 467h5v1h-5zM229 467h9v1h-9zM272 467h13v1h-13zM314 467h5v1h-5zM335 467h24v1h-24zM364 467h17v1h-17zM141 468h21v1h-21zM178 468h17v1h-17zM213 468h5v1h-5zM229 468h9v1h-9zM272 468h13v1h-13zM314 468h4v1h-4zM335 468h23v1h-23zM365 468h16v1h-16zM142 469h52v1h-52zM213 469h5v1h-5zM229 469h9v1h-9zM273 469h13v1h-13zM313 469h5v1h-5zM336 469h22v1h-22zM366 469h14v1h-14zM143 470h50v1h-50zM213 470h5v1h-5zM229 470h8v1h-8zM274 470h13v1h-13zM312 470h5v1h-5zM337 470h21v1h-21zM367 470h13v1h-13zM144 471h48v1h-48zM213 471h5v1h-5zM229 471h8v1h-8zM274 471h14v1h-14zM311 471h5v1h-5zM338 471h19v1h-19zM369 471h10v1h-10zM145 472h46v1h-46zM213 472h6v1h-6zM228 472h9v1h-9zM275 472h13v1h-13zM309 472h7v1h-7zM339 472h17v1h-17zM371 472h6v1h-6zM146 473h44v1h-44zM214 473h6v1h-6zM228 473h8v1h-8zM275 473h14v1h-14zM308 473h7v1h-7zM339 473h17v1h-17zM147 474h42v1h-42zM214 474h7v1h-7zM228 474h8v1h-8zM276 474h14v1h-14zM307 474h7v1h-7zM341 474h14v1h-14zM149 475h39v1h-39zM214 475h8v1h-8zM227 475h8v1h-8zM277 475h14v1h-14zM304 475h9v1h-9zM343 475h10v1h-10zM150 476h36v1h-36zM215 476h8v1h-8zM226 476h9v1h-9zM278 476h15v1h-15zM303 476h10v1h-10zM345 476h6v1h-6zM152 477h33v1h-33zM215 477h19v1h-19zM279 477h16v1h-16zM300 477h11v1h-11zM153 478h30v1h-30zM216 478h18v1h-18zM280 478h30v1h-30zM156 479h25v1h-25zM217 479h16v1h-16zM281 479h28v1h-28zM158 480h21v1h-21zM218 480h15v1h-15zM282 480h26v1h-26zM163 481h10v1h-10zM219 481h13v1h-13zM284 481h22v1h-22zM220 482h11v1h-11zM285 482h20v1h-20zM222 483h7v1h-7zM287 483h16v1h-16zM290 484h11v1h-11z"/></svg></svg>